<svg id="SvgjsSvg1001" width="288" height="288" xmlns="http://www.w3.org/2000/svg" version="1.1" xmlns:xlink="http://www.w3.org/1999/xlink" xmlns:svgjs="http://svgjs.com/svgjs"><defs id="SvgjsDefs1002"></defs><g id="SvgjsG1008" transform="matrix(0.9167,0,0,0.9167,11.995200000000011,11.995200000000011)"><svg xmlns="http://www.w3.org/2000/svg" xmlns:svgjs="http://svgjs.com/svgjs" xmlns:xlink="http://www.w3.org/1999/xlink" width="288" height="288"><svg xmlns="http://www.w3.org/2000/svg" width="288" height="288" transform="translate(11.995 11.995) scale(.9167)" viewBox="0 0 384 512"><path fill="#b324b9" d="M348.5 232.1l-148 148.4c-4.7 4.7-12.3 4.7-17 0l-148-148.4c-4.7-4.7-4.7-12.3 0-17l19.6-19.6c4.8-4.8 12.5-4.7 17.1.2l93.7 97.1V44c0-6.6 5.4-12 12-12h28c6.6 0 12 5.4 12 12v248.8l93.7-97.1c4.7-4.8 12.4-4.9 17.1-.2l19.6 19.6c4.9 4.7 4.9 12.3.2 17zM372 428H12c-6.6 0-12 5.4-12 12v28c0 6.6 5.4 12 12 12h360c6.6 0 12-5.4 12-12v-28c0-6.6-5.4-12-12-12z" class="colorgray svgShape colorfff"></path></svg></svg></g></svg>