<svg id="SvgjsSvg1001" width="288" height="288" xmlns="http://www.w3.org/2000/svg" version="1.1" xmlns:xlink="http://www.w3.org/1999/xlink" xmlns:svgjs="http://svgjs.com/svgjs"><defs id="SvgjsDefs1002"></defs><g id="SvgjsG1008" transform="matrix(0.9167,0,0,0.9167,11.995200000000011,11.995199046707171)"><svg xmlns="http://www.w3.org/2000/svg" viewBox="0 0 448 512" width="288" height="288"><path d="M390.3 473.9L180.9 264.5c-4.7-4.7-4.7-12.3 0-17L390.3 38.1c4.7-4.7 12.3-4.7 17 0l19.8 19.8c4.7 4.7 4.7 12.3 0 17L246.4 256l180.7 181.1c4.7 4.7 4.7 12.3 0 17l-19.8 19.8c-4.7 4.7-12.3 4.7-17 0zm-143 0l19.8-19.8c4.7-4.7 4.7-12.3 0-17L86.4 256 267.1 74.9c4.7-4.7 4.7-12.3 0-17l-19.8-19.8c-4.7-4.7-12.3-4.7-17 0L20.9 247.5c-4.7 4.7-4.7 12.3 0 17l209.4 209.4c4.7 4.7 12.3 4.7 17 0z" fill="#7680f3" class="color000 svgShape"></path></svg></g></svg>